<svg width="1000" height="600" viewBox="0 0 1000 600" fill="none" xmlns="http://www.w3.org/2000/svg">
  <path d="M100,500 L100,400 L150,400 L150,500 Z" stroke="#E0F2FE" stroke-width="2"/>
  <path d="M200,500 L200,350 L300,350 L300,500 Z" stroke="#E0F2FE" stroke-width="2"/>
  <path d="M350,500 L350,300 L400,300 L400,500 Z" stroke="#E0F2FE" stroke-width="2"/>
  <path d="M450,500 L450,250 L550,250 L550,500 Z" stroke="#E0F2FE" stroke-width="2"/>
  <path d="M600,500 L600,200 L650,200 L650,500 Z" stroke="#E0F2FE" stroke-width="2"/>
  <path d="M700,500 L700,150 L800,150 L800,500 Z" stroke="#E0F2FE" stroke-width="2"/>
  <path d="M850,500 L850,300 L900,300 L900,500 Z" stroke="#E0F2FE" stroke-width="2"/>
  <path d="M500,150 L500,100 L520,50 L540,100 L540,150 Z" stroke="#E0F2FE" stroke-width="2"/>
  <path d="M400,200 L600,200" stroke="#E0F2FE" stroke-width="2"/>
</svg>
